<?xml version="1.0" encoding="utf-8"?>
<!-- Generator: Adobe Illustrator 25.0.1, SVG Export Plug-In . SVG Version: 6.00 Build 0)  -->
<svg version="1.1" id="Layer_1" xmlns="http://www.w3.org/2000/svg" xmlns:xlink="http://www.w3.org/1999/xlink" x="0px" y="0px"
	 viewBox="0 0 400 400" style="enable-background:new 0 0 400 400;" xml:space="preserve">
<style type="text/css">
	.st0{fill:url(#SVGID_1_);}
	.st1{fill:url(#SVGID_2_);}
	.st2{fill:url(#SVGID_3_);}
	.st3{fill:url(#SVGID_4_);}
	.st4{fill:url(#SVGID_5_);}
	.st5{fill:url(#SVGID_6_);}
	.st6{fill:url(#SVGID_7_);}
	.st7{fill:url(#SVGID_8_);}
	.st8{fill:url(#SVGID_9_);}
	.st9{fill:url(#SVGID_10_);}
	.st10{fill:url(#SVGID_11_);}
	.st11{fill:url(#SVGID_12_);}
	.st12{fill:url(#SVGID_13_);}
	.st13{fill:url(#SVGID_14_);}
	.st14{fill:url(#SVGID_15_);}
	.st15{fill:url(#SVGID_16_);}
	.st16{fill:url(#SVGID_17_);}
	.st17{fill:url(#SVGID_18_);}
	.st18{fill:url(#SVGID_19_);}
	.st19{fill:url(#SVGID_20_);}
	.st20{fill:url(#SVGID_21_);}
	.st21{fill:url(#SVGID_22_);}
	.st22{fill:url(#SVGID_23_);}
	.st23{fill:url(#SVGID_24_);}
	.st24{fill:url(#SVGID_25_);}
	.st25{fill:url(#SVGID_26_);}
	.st26{fill:url(#SVGID_27_);}
	.st27{fill:url(#SVGID_28_);}
	.st28{fill:url(#SVGID_29_);}
	.st29{fill:url(#SVGID_30_);}
	.st30{fill:url(#SVGID_31_);}
</style>
<g>
	<g>
		<g>
			<linearGradient id="SVGID_1_" gradientUnits="userSpaceOnUse" x1="351.9987" y1="13.7393" x2="52.247" y2="381.058">
				<stop  offset="0" style="stop-color:#D7B270"/>
				<stop  offset="1" style="stop-color:#CA953F"/>
			</linearGradient>
			<path class="st0" d="M200,387.2C96.78,387.2,12.8,303.22,12.8,200S96.78,12.8,200,12.8S387.2,96.78,387.2,200
				S303.22,387.2,200,387.2z M200,19.13c-99.73,0-180.87,81.14-180.87,180.87S100.27,380.87,200,380.87S380.87,299.73,380.87,200
				S299.73,19.13,200,19.13z"/>
		</g>
		<g>
			<linearGradient id="SVGID_2_" gradientUnits="userSpaceOnUse" x1="351.9987" y1="13.7393" x2="52.247" y2="381.058">
				<stop  offset="0" style="stop-color:#D7B270"/>
				<stop  offset="1" style="stop-color:#CA953F"/>
			</linearGradient>
			<path class="st1" d="M200,400C89.72,400,0,310.28,0,200S89.72,0,200,0s200,89.72,200,200S310.28,400,200,400z M200,6.76
				C93.45,6.76,6.76,93.45,6.76,200S93.45,393.24,200,393.24S393.24,306.55,393.24,200S306.55,6.76,200,6.76z"/>
		</g>
		<g>
			<g>
				<linearGradient id="SVGID_3_" gradientUnits="userSpaceOnUse" x1="253.5986" y1="-66.5616" x2="-46.1544" y2="300.7587">
					<stop  offset="0" style="stop-color:#D7B270"/>
					<stop  offset="1" style="stop-color:#CA953F"/>
				</linearGradient>
				<path class="st2" d="M89.57,154.7l-27.55-10.24c-0.43-0.16-0.92-0.14-1.34,0.05c-0.42,0.19-0.75,0.55-0.91,0.98l-1.16,3.11
					c-0.33,0.91,0.13,1.91,1.03,2.25l27.55,10.24c0.19,0.07,0.4,0.11,0.61,0.11c0.25,0,0.5-0.05,0.73-0.16
					c0.42-0.19,0.75-0.55,0.91-0.98l1.16-3.11C90.94,156.04,90.48,155.04,89.57,154.7z"/>
				<linearGradient id="SVGID_4_" gradientUnits="userSpaceOnUse" x1="248.5202" y1="-70.7045" x2="-51.2317" y2="296.6145">
					<stop  offset="0" style="stop-color:#D7B270"/>
					<stop  offset="1" style="stop-color:#CA953F"/>
				</linearGradient>
				<path class="st3" d="M103.03,119.14l-2.98,0.68c-0.92,0.21-1.51,1.11-1.33,2.04c0.64,3.3,0.64,5.95-1.33,9
					c-2.97,4.61-8.96,5.68-14.02,2.42c-4.94-3.18-6.42-9.06-3.45-13.68c1.9-2.95,4.32-4.07,7.35-4.83c0.45-0.11,0.84-0.4,1.08-0.8
					c0.24-0.4,0.31-0.88,0.19-1.32l-0.82-3.23c-0.23-0.92-1.18-1.49-2.09-1.28c-5.06,1.17-8.41,3.52-11.21,7.87
					c-5.05,7.83-2.74,18,5.22,23.13l0.07,0.05c0.01,0.01,0.02,0.01,0.03,0.02c3.01,1.94,6.29,2.88,9.47,2.88
					c5.35,0,10.45-2.65,13.64-7.6c2.8-4.34,3.5-8.67,2.26-14.02C104.9,119.51,103.97,118.92,103.03,119.14z"/>
				<linearGradient id="SVGID_5_" gradientUnits="userSpaceOnUse" x1="249.964" y1="-69.526" x2="-49.7877" y2="297.7926">
					<stop  offset="0" style="stop-color:#D7B270"/>
					<stop  offset="1" style="stop-color:#CA953F"/>
				</linearGradient>
				<path class="st4" d="M103.43,83.71c-7.23,6.03-8.12,16.48-2.02,23.79l0.05,0.06c3.45,4.13,8.15,6.25,12.9,6.25
					c3.74,0,7.52-1.32,10.74-4c7.23-6.03,8.12-16.48,1.97-23.84C120.91,78.58,110.75,77.62,103.43,83.71z M124.43,97.95
					c-0.15,2.62-1.38,5.02-3.47,6.76s-4.69,2.53-7.34,2.2c-2.63-0.32-5.07-1.7-6.94-3.93c-3.76-4.51-3.38-10.6,0.89-14.17
					c1.78-1.49,3.93-2.27,6.16-2.27c0.39,0,0.78,0.02,1.18,0.07c2.63,0.32,5.07,1.7,6.85,3.83l0.05,0.06
					c0.01,0.01,0.02,0.02,0.03,0.04C123.66,92.71,124.57,95.35,124.43,97.95z"/>
				<linearGradient id="SVGID_6_" gradientUnits="userSpaceOnUse" x1="261.2644" y1="-60.3041" x2="-38.487" y2="307.0143">
					<stop  offset="0" style="stop-color:#D7B270"/>
					<stop  offset="1" style="stop-color:#CA953F"/>
				</linearGradient>
				<path class="st5" d="M158.56,56.25c-0.17-0.43-0.5-0.78-0.93-0.96c-0.42-0.19-0.9-0.19-1.34-0.02l-3.01,1.19
					c-0.9,0.35-1.34,1.37-0.98,2.27l6.78,17.22l-21.51-12.59c-0.46-0.27-1.02-0.31-1.53-0.12l-2.89,1.14
					c-0.9,0.35-1.34,1.37-0.98,2.27L142.93,94c0.27,0.69,0.93,1.11,1.63,1.11c0.21,0,0.43-0.04,0.64-0.12l3.01-1.18
					c0.43-0.17,0.78-0.5,0.96-0.93c0.19-0.43,0.19-0.91,0.02-1.34l-6.98-17.74l22.14,12.94c0.46,0.27,1.02,0.31,1.52,0.12l2.46-0.97
					c0.43-0.17,0.78-0.5,0.96-0.93c0.19-0.43,0.19-0.91,0.02-1.34L158.56,56.25z"/>
				<linearGradient id="SVGID_7_" gradientUnits="userSpaceOnUse" x1="290.6638" y1="-36.313" x2="-9.0878" y2="331.0057">
					<stop  offset="0" style="stop-color:#D7B270"/>
					<stop  offset="1" style="stop-color:#CA953F"/>
				</linearGradient>
				<path class="st6" d="M218.42,65.95c1.88-1.55,2.96-3.72,3.13-6.38c0.14-2.26-0.55-4.35-2.04-6.1c-1.95-2.16-4.95-3.42-8.69-3.66
					l-12.49-0.79c-1.14-0.06-1.8,0.68-1.86,1.64L194.6,80c-0.03,0.46,0.13,0.92,0.43,1.27c0.3,0.35,0.74,0.56,1.2,0.59l13.04,0.83
					c0.46,0.03,0.91,0.04,1.35,0.04c2.99,0,5.59-0.66,7.57-1.94c2.48-1.6,3.9-4.05,4.1-7.15C222.5,70.45,221.14,67.8,218.42,65.95z
					 M214.67,59.69c-0.18,2.89-2.96,3.32-5.22,3.18l-6.94-0.44l0.42-6.61l7.18,0.46c1.64,0.1,2.93,0.52,3.71,1.19
					c0.63,0.54,0.91,1.25,0.85,2.14l1.75,0.11L214.67,59.69z M215.46,73.08c-0.19,3.04-3.66,3.29-5.68,3.15l-8.11-0.52l0.43-6.86
					l7.52,0.48c4.02,0.25,5.98,1.49,5.84,3.67l1.75,0.11L215.46,73.08z"/>
				<linearGradient id="SVGID_8_" gradientUnits="userSpaceOnUse" x1="317.1092" y1="-14.7323" x2="17.3574" y2="352.5865">
					<stop  offset="0" style="stop-color:#D7B270"/>
					<stop  offset="1" style="stop-color:#CA953F"/>
				</linearGradient>
				<path class="st7" d="M264.61,64.14c-0.19-0.42-0.54-0.75-0.98-0.91l-3.11-1.16c-0.92-0.34-1.91,0.12-2.25,1.02l-6,16
					c-0.94,2.51-2.26,4.19-3.92,5c-1.56,0.76-3.41,0.74-5.52-0.05c-5.6-2.1-5.22-6.69-3.91-10.18l5.93-15.8
					c0.16-0.44,0.15-0.92-0.04-1.34c-0.19-0.42-0.54-0.75-0.98-0.91l-3.11-1.16c-0.92-0.33-1.91,0.12-2.25,1.02l-6,16
					c-1.57,4.18-1.61,8.13-0.12,11.42c1.44,3.18,4.25,5.63,8.1,7.07c1.96,0.73,3.87,1.1,5.68,1.1c1.82,0,3.55-0.37,5.14-1.1
					c3.28-1.52,5.87-4.6,7.48-8.9l5.91-15.76C264.82,65.04,264.8,64.56,264.61,64.14z"/>
				<linearGradient id="SVGID_9_" gradientUnits="userSpaceOnUse" x1="347.3018" y1="9.9064" x2="47.55" y2="377.2251">
					<stop  offset="0" style="stop-color:#D7B270"/>
					<stop  offset="1" style="stop-color:#CA953F"/>
				</linearGradient>
				<path class="st8" d="M269.98,97.71l14.63-19.76c0.28-0.37,0.39-0.84,0.32-1.3s-0.31-0.87-0.69-1.15l-2.67-1.97
					c-0.77-0.57-1.87-0.41-2.45,0.37l-17.5,23.63c-0.28,0.37-0.39,0.84-0.32,1.3c0.07,0.46,0.31,0.87,0.69,1.15l15.97,11.82
					c0.31,0.23,0.68,0.34,1.04,0.34c0.53,0,1.06-0.24,1.4-0.71l1.83-2.46c0.28-0.37,0.39-0.84,0.32-1.3s-0.31-0.87-0.69-1.15
					L269.98,97.71z"/>
				<linearGradient id="SVGID_10_" gradientUnits="userSpaceOnUse" x1="370.7533" y1="29.0441" x2="71.0019" y2="396.3624">
					<stop  offset="0" style="stop-color:#D7B270"/>
					<stop  offset="1" style="stop-color:#CA953F"/>
				</linearGradient>
				<path class="st9" d="M292.76,118.11l19.01-15.6c0.36-0.3,0.58-0.72,0.63-1.18c0.04-0.46-0.1-0.92-0.39-1.28l-2.11-2.57
					c-0.62-0.75-1.72-0.85-2.46-0.24l-22.73,18.66c-0.75,0.61-0.85,1.72-0.24,2.46l12.61,15.36c0.29,0.36,0.72,0.58,1.18,0.63
					c0.06,0.01,0.11,0.01,0.17,0.01c0.4,0,0.8-0.14,1.11-0.4l2.37-1.94c0.75-0.61,0.85-1.72,0.24-2.46L292.76,118.11z"/>
				<linearGradient id="SVGID_11_" gradientUnits="userSpaceOnUse" x1="396.7651" y1="50.2709" x2="97.0134" y2="417.5896">
					<stop  offset="0" style="stop-color:#D7B270"/>
					<stop  offset="1" style="stop-color:#CA953F"/>
				</linearGradient>
				<path class="st10" d="M336.07,136.41c-1.29-2.82-3.35-5.02-5.8-6.19c-2.55-1.22-5.33-1.26-7.91-0.08
					c-6.19,2.83-5.87,8.63-4.59,14.47c1.36,6.26,0.2,6.79-1,7.34c-0.81,0.37-1.64,0.34-2.46-0.09c-0.97-0.51-1.86-1.54-2.48-2.93
					c-1.44-3.14-1.54-5.93-0.34-9.63c0.15-0.45,0.1-0.95-0.12-1.37c-0.23-0.42-0.61-0.73-1.07-0.86l-3.07-0.86
					c-0.93-0.27-1.86,0.26-2.14,1.16c-1.58,5-1.33,9.49,0.79,14.13c2.17,4.73,5.96,7.42,10.02,7.42c1.36,0,2.75-0.3,4.12-0.93
					c6.1-2.79,5.64-9.01,4.56-14.15c-1.5-6.55-0.28-7.11,0.97-7.68c1.63-0.74,3.48,0.4,4.6,2.85c1.12,2.45,1.29,4.95,0.53,7.87
					c-0.12,0.46-0.05,0.95,0.2,1.36c0.25,0.41,0.65,0.69,1.12,0.79l3.13,0.69c0.94,0.2,1.85-0.37,2.07-1.29
					C338.26,144.08,337.93,140.47,336.07,136.41z"/>
			</g>
			<g>
				<linearGradient id="SVGID_12_" gradientUnits="userSpaceOnUse" x1="350.4784" y1="12.4996" x2="50.7273" y2="379.8176">
					<stop  offset="0" style="stop-color:#D7B270"/>
					<stop  offset="1" style="stop-color:#CA953F"/>
				</linearGradient>
				<path class="st11" d="M133.87,300.35c0.21-0.67,0-1.41-0.54-1.87l-3.3-2.8c-0.36-0.3-0.84-0.45-1.31-0.4l-19.92,2.03l8.55-10.08
					c0.63-0.73,0.54-1.84-0.2-2.46l-2.53-2.15c-0.36-0.3-0.83-0.46-1.27-0.41c-0.46,0.04-0.89,0.26-1.19,0.61l-19.03,22.43
					c-0.63,0.73-0.54,1.84,0.2,2.46l2.53,2.15c0.35,0.3,0.81,0.43,1.27,0.41c0.46-0.04,0.89-0.26,1.19-0.61l4.65-5.48l6.19-0.55
					l-0.53,16.2c-0.02,0.53,0.21,1.05,0.62,1.39l3.17,2.69c0.32,0.27,0.72,0.42,1.13,0.42c0.24,0,0.48-0.05,0.71-0.15
					c0.61-0.27,1.02-0.87,1.04-1.54l0.63-19.59l16.42-1.48C133.07,301.5,133.66,301.02,133.87,300.35z"/>
				<linearGradient id="SVGID_13_" gradientUnits="userSpaceOnUse" x1="378.786" y1="35.5986" x2="79.034" y2="402.9176">
					<stop  offset="0" style="stop-color:#D7B270"/>
					<stop  offset="1" style="stop-color:#CA953F"/>
				</linearGradient>
				<path class="st12" d="M160.98,311.95l-19.35-8.78c-0.42-0.19-0.91-0.21-1.34-0.04c-0.43,0.16-0.79,0.49-0.98,0.91l-12.15,26.77
					c-0.4,0.88-0.01,1.92,0.87,2.32l19.54,8.87c0.23,0.11,0.48,0.16,0.72,0.16c0.21,0,0.42-0.04,0.62-0.11
					c0.43-0.16,0.79-0.49,0.98-0.92l1.25-2.75c0.4-0.88,0.01-1.91-0.87-2.31l-14.93-6.78l2.81-6.18l13.01,5.91
					c0.89,0.4,1.92,0.01,2.32-0.87l1.25-2.75c0.19-0.42,0.21-0.91,0.04-1.34c-0.16-0.43-0.49-0.79-0.91-0.98l-13.02-5.91l2.7-5.95
					l14.73,6.69c0.42,0.19,0.91,0.21,1.34,0.04c0.43-0.16,0.79-0.49,0.98-0.92l1.25-2.75C162.24,313.38,161.85,312.35,160.98,311.95
					z"/>
				<linearGradient id="SVGID_14_" gradientUnits="userSpaceOnUse" x1="405.4832" y1="57.385" x2="105.7313" y2="424.7039">
					<stop  offset="0" style="stop-color:#D7B270"/>
					<stop  offset="1" style="stop-color:#CA953F"/>
				</linearGradient>
				<path class="st13" d="M195.23,318.37l-3.2-0.45c-0.93-0.12-1.84,0.53-1.98,1.49l-2.59,18.33l-12.51-21.55
					c-0.27-0.46-0.74-0.78-1.27-0.85l-3.08-0.43c-0.93-0.11-1.84,0.53-1.98,1.49l-4.11,29.12c-0.06,0.46,0.05,0.93,0.33,1.3
					c0.28,0.37,0.69,0.62,1.16,0.68l3.2,0.45c0.94,0.12,1.84-0.53,1.98-1.49l2.67-18.88l12.89,22.17c0.27,0.46,0.74,0.78,1.27,0.85
					l2.62,0.37c0.08,0.01,0.16,0.02,0.25,0.02c0.38,0,0.75-0.12,1.05-0.35c0.37-0.28,0.62-0.69,0.68-1.15l4.11-29.12
					c0.06-0.46-0.05-0.93-0.33-1.3C196.11,318.68,195.69,318.44,195.23,318.37z"/>
				<linearGradient id="SVGID_15_" gradientUnits="userSpaceOnUse" x1="430.1682" y1="77.5296" x2="130.4166" y2="444.8481">
					<stop  offset="0" style="stop-color:#D7B270"/>
					<stop  offset="1" style="stop-color:#CA953F"/>
				</linearGradient>
				<path class="st14" d="M231.76,314.08l-3.19,0.53c-0.46,0.08-0.87,0.33-1.14,0.71c-0.27,0.38-0.38,0.85-0.3,1.31l3.06,18.26
					l-18.43-16.78c-0.4-0.36-0.94-0.52-1.47-0.43l-3.07,0.51c-0.46,0.08-0.87,0.33-1.14,0.71c-0.27,0.38-0.38,0.85-0.3,1.31
					l4.86,29.01c0.14,0.85,0.89,1.46,1.72,1.46c0.1,0,0.19-0.01,0.29-0.02l3.19-0.53c0.46-0.08,0.87-0.33,1.14-0.71
					c0.27-0.38,0.38-0.85,0.3-1.31l-3.15-18.81l18.98,17.25c0.4,0.36,0.92,0.53,1.47,0.43l2.61-0.44c0.46-0.08,0.86-0.33,1.13-0.71
					c0.27-0.38,0.38-0.85,0.3-1.31l-4.86-29.01C233.61,314.57,232.69,313.92,231.76,314.08z"/>
				<linearGradient id="SVGID_16_" gradientUnits="userSpaceOnUse" x1="446.8537" y1="91.1462" x2="147.1024" y2="458.4644">
					<stop  offset="0" style="stop-color:#D7B270"/>
					<stop  offset="1" style="stop-color:#CA953F"/>
				</linearGradient>
				<path class="st15" d="M276.45,324.94c-0.43-0.87-1.48-1.22-2.34-0.79l-14.69,7.25l-3-6.09l12.81-6.32
					c0.86-0.43,1.22-1.48,0.79-2.34l-1.34-2.71c-0.21-0.42-0.57-0.73-1-0.89c-0.44-0.15-0.92-0.11-1.34,0.09l-12.81,6.32l-2.89-5.86
					l14.51-7.16c0.41-0.21,0.73-0.57,0.88-1.01c0.15-0.44,0.12-0.92-0.09-1.34l-1.34-2.71c-0.43-0.87-1.49-1.22-2.34-0.79L243.2,310
					c-0.86,0.43-1.22,1.48-0.79,2.34l13.01,26.36c0.21,0.41,0.57,0.73,1.01,0.88c0.18,0.06,0.37,0.09,0.56,0.09
					c0.27,0,0.53-0.06,0.78-0.18L277,330c0.41-0.21,0.73-0.57,0.88-1.01c0.15-0.44,0.12-0.92-0.09-1.34L276.45,324.94z"/>
				<linearGradient id="SVGID_17_" gradientUnits="userSpaceOnUse" x1="454.629" y1="97.4906" x2="154.8773" y2="464.8093">
					<stop  offset="0" style="stop-color:#D7B270"/>
					<stop  offset="1" style="stop-color:#CA953F"/>
				</linearGradient>
				<path class="st16" d="M307.51,303.84l-2.01-2.31c-0.63-0.73-1.74-0.81-2.47-0.17l-11.17,9.71l-16.13-18.57
					c-0.64-0.73-1.74-0.8-2.47-0.17l-2.51,2.18c-0.35,0.3-0.56,0.73-0.6,1.2c-0.03,0.46,0.12,0.92,0.42,1.27l19.29,22.21
					c0.31,0.35,0.74,0.56,1.2,0.6c0.04,0,0.08,0,0.12,0c0.42,0,0.83-0.15,1.15-0.43l15.01-13.04c0.35-0.31,0.56-0.74,0.6-1.2
					C307.97,304.65,307.81,304.19,307.51,303.84z"/>
			</g>
			<g>
				<g>
					<linearGradient id="SVGID_18_" gradientUnits="userSpaceOnUse" x1="276.1707" y1="-48.14" x2="-23.5809" y2="319.1786">
						<stop  offset="0" style="stop-color:#D7B270"/>
						<stop  offset="1" style="stop-color:#CA953F"/>
					</linearGradient>
					<path class="st17" d="M62.11,215.05c0.48,0,0.88-0.39,0.88-0.88v-1c0-0.48-0.39-0.88-0.88-0.88H51.65
						c-0.48,0-0.88,0.39-0.88,0.88v14.69c0,0.48,0.39,0.88,0.88,0.88h10.55c0.48,0,0.88-0.39,0.88-0.88v-1.01
						c0-0.48-0.39-0.88-0.88-0.88h-8.59v-4.15h7.54c0.48,0,0.88-0.39,0.88-0.88v-1.01c0-0.48-0.39-0.88-0.88-0.88h-7.54v-4.02H62.11
						z"/>
					<linearGradient id="SVGID_19_" gradientUnits="userSpaceOnUse" x1="284.9758" y1="-40.9547" x2="-14.776" y2="326.364">
						<stop  offset="0" style="stop-color:#D7B270"/>
						<stop  offset="1" style="stop-color:#CA953F"/>
					</linearGradient>
					<path class="st18" d="M71.91,226.21c-1.86,0-3.17-0.55-4.67-1.95c-0.17-0.16-0.41-0.23-0.64-0.24
						c-0.24,0.01-0.46,0.12-0.62,0.3l-0.71,0.82c-0.31,0.36-0.28,0.91,0.08,1.23c1.99,1.78,4,2.57,6.5,2.57
						c3.33,0,5.75-2.05,5.75-4.93c0-3.36-2.96-4.39-5.52-4.9c-3.59-0.76-3.59-1.57-3.59-2.4c0-1.1,1.14-1.89,2.71-1.89
						c1.48,0,2.63,0.43,3.82,1.45c0.18,0.15,0.41,0.23,0.65,0.21c0.24-0.02,0.45-0.14,0.6-0.32l0.69-0.86
						c0.15-0.18,0.22-0.41,0.19-0.65c-0.03-0.23-0.14-0.44-0.32-0.59c-1.75-1.4-3.37-1.98-5.59-1.98c-3.19,0-5.6,2.04-5.6,4.78
						c0,3.37,2.86,4.41,5.65,4.99c3.46,0.7,3.46,1.53,3.46,2.31C74.76,225.37,73.59,226.21,71.91,226.21z"/>
					<linearGradient id="SVGID_20_" gradientUnits="userSpaceOnUse" x1="292.1555" y1="-35.0954" x2="-7.596" y2="332.223">
						<stop  offset="0" style="stop-color:#D7B270"/>
						<stop  offset="1" style="stop-color:#CA953F"/>
					</linearGradient>
					<path class="st19" d="M85.57,228.74h1.09c0.48,0,0.88-0.39,0.88-0.88v-12.81h4.25c0.48,0,0.88-0.39,0.88-0.88v-1
						c0-0.48-0.39-0.88-0.88-0.88H80.45c-0.48,0-0.88,0.39-0.88,0.88v1c0,0.48,0.39,0.88,0.88,0.88h4.25v12.81
						C84.7,228.35,85.09,228.74,85.57,228.74z"/>
					<linearGradient id="SVGID_21_" gradientUnits="userSpaceOnUse" x1="302.1869" y1="-26.9096" x2="2.4352" y2="340.4091">
						<stop  offset="0" style="stop-color:#D7B270"/>
						<stop  offset="1" style="stop-color:#CA953F"/>
					</linearGradient>
					<path class="st20" d="M95.7,225.21h-1.38c-0.48,0-0.88,0.39-0.88,0.88v1.78c0,0.48,0.39,0.88,0.88,0.88h1.38
						c0.48,0,0.88-0.39,0.88-0.88v-1.78C96.57,225.6,96.18,225.21,95.7,225.21z"/>
					<linearGradient id="SVGID_22_" gradientUnits="userSpaceOnUse" x1="293.4952" y1="-34.0038" x2="-6.2574" y2="333.316">
						<stop  offset="0" style="stop-color:#D7B270"/>
						<stop  offset="1" style="stop-color:#CA953F"/>
					</linearGradient>
					<path class="st21" d="M95.7,235.12H50.62c-0.48,0-0.88,0.39-0.88,0.88c0,0.48,0.39,0.88,0.88,0.88H95.7
						c0.48,0,0.88-0.39,0.88-0.88C96.57,235.51,96.18,235.12,95.7,235.12z"/>
					<linearGradient id="SVGID_23_" gradientUnits="userSpaceOnUse" x1="278.0079" y1="-46.6421" x2="-21.7447" y2="320.6777">
						<stop  offset="0" style="stop-color:#D7B270"/>
						<stop  offset="1" style="stop-color:#CA953F"/>
					</linearGradient>
					<path class="st22" d="M50.62,205.25H95.7c0.48,0,0.88-0.39,0.88-0.88c0-0.48-0.39-0.88-0.88-0.88H50.62
						c-0.48,0-0.88,0.39-0.88,0.88C49.75,204.86,50.14,205.25,50.62,205.25z"/>
				</g>
				<g>
					<linearGradient id="SVGID_24_" gradientUnits="userSpaceOnUse" x1="426.777" y1="74.7622" x2="127.0254" y2="442.0807">
						<stop  offset="0" style="stop-color:#D7B270"/>
						<stop  offset="1" style="stop-color:#CA953F"/>
					</linearGradient>
					<path class="st23" d="M301.51,228.74h10.03c0.48,0,0.88-0.39,0.88-0.88v-1.05c0-0.48-0.39-0.88-0.88-0.88h-6.04l2.81-2.55
						c2.39-2.19,3.96-3.82,3.96-6.4c0-2.8-2.25-4.9-5.24-4.9c-3.18,0-4.74,1.7-5.95,3.54c-0.27,0.4-0.16,0.94,0.24,1.21l0.82,0.55
						c0.39,0.26,0.93,0.16,1.2-0.23c1.2-1.72,2.17-2.36,3.59-2.36c1.21,0,2.44,0.78,2.44,2.27c0,1.09-0.47,2.12-2.97,4.36
						l-5.48,4.96c-0.18,0.17-0.29,0.4-0.29,0.65v0.82C300.64,228.35,301.03,228.74,301.51,228.74z"/>
					<linearGradient id="SVGID_25_" gradientUnits="userSpaceOnUse" x1="434.6561" y1="81.1919" x2="134.9045" y2="448.5104">
						<stop  offset="0" style="stop-color:#D7B270"/>
						<stop  offset="1" style="stop-color:#CA953F"/>
					</linearGradient>
					<path class="st24" d="M314,220.52v0.04c0,4.88,2.92,8.43,6.94,8.43c3.98,0,6.98-3.64,6.98-8.51c0-4.88-2.92-8.43-6.94-8.43
						C317,212.05,314,215.69,314,220.52z M320.98,226.25c-2.57,0-4.1-2.92-4.1-5.78c0-2.76,1.42-5.7,4.06-5.7
						c2.57,0,4.1,2.92,4.1,5.74v0.04C325.04,223.32,323.62,226.25,320.98,226.25z"/>
					<linearGradient id="SVGID_26_" gradientUnits="userSpaceOnUse" x1="443.8022" y1="88.6555" x2="144.0505" y2="455.974">
						<stop  offset="0" style="stop-color:#D7B270"/>
						<stop  offset="1" style="stop-color:#CA953F"/>
					</linearGradient>
					<path class="st25" d="M334.76,221.44l-5.48,4.96c-0.18,0.17-0.29,0.4-0.29,0.65v0.82c0,0.48,0.39,0.88,0.88,0.88h10.03
						c0.48,0,0.88-0.39,0.88-0.88v-1.05c0-0.48-0.39-0.88-0.88-0.88h-6.04l2.81-2.55c2.39-2.19,3.96-3.82,3.96-6.4
						c0-2.8-2.25-4.9-5.24-4.9c-3.18,0-4.74,1.7-5.95,3.54c-0.27,0.4-0.16,0.94,0.24,1.21l0.82,0.55c0.39,0.26,0.93,0.16,1.2-0.23
						c1.2-1.72,2.17-2.36,3.59-2.36c1.21,0,2.44,0.78,2.44,2.27C337.73,218.17,337.26,219.19,334.76,221.44z"/>
					<linearGradient id="SVGID_27_" gradientUnits="userSpaceOnUse" x1="449.2614" y1="93.1108" x2="149.5102" y2="460.4289">
						<stop  offset="0" style="stop-color:#D7B270"/>
						<stop  offset="1" style="stop-color:#CA953F"/>
					</linearGradient>
					<path class="st26" d="M345.86,228.74h1.07c0.48,0,0.88-0.39,0.88-0.88v-14.8c0-0.48-0.39-0.88-0.88-0.88h-0.84
						c-0.1,0-0.21,0.02-0.3,0.05l-3.36,1.24c-0.45,0.16-0.68,0.65-0.53,1.1l0.29,0.86c0.08,0.22,0.23,0.4,0.44,0.5
						c0.21,0.1,0.45,0.11,0.67,0.04l1.67-0.57v12.44C344.98,228.35,345.37,228.74,345.86,228.74z"/>
					<linearGradient id="SVGID_28_" gradientUnits="userSpaceOnUse" x1="444.9319" y1="89.5766" x2="145.1792" y2="456.8964">
						<stop  offset="0" style="stop-color:#D7B270"/>
						<stop  offset="1" style="stop-color:#CA953F"/>
					</linearGradient>
					<path class="st27" d="M349.38,235.12h-47.86c-0.48,0-0.88,0.39-0.88,0.88c0,0.48,0.39,0.88,0.88,0.88h47.86
						c0.48,0,0.88-0.39,0.88-0.88C350.25,235.51,349.86,235.12,349.38,235.12z"/>
					<linearGradient id="SVGID_29_" gradientUnits="userSpaceOnUse" x1="429.4446" y1="76.9383" x2="129.6919" y2="444.2581">
						<stop  offset="0" style="stop-color:#D7B270"/>
						<stop  offset="1" style="stop-color:#CA953F"/>
					</linearGradient>
					<path class="st28" d="M301.51,205.25h47.86c0.48,0,0.88-0.39,0.88-0.88c0-0.48-0.39-0.88-0.88-0.88h-47.86
						c-0.48,0-0.88,0.39-0.88,0.88C300.64,204.86,301.03,205.25,301.51,205.25z"/>
				</g>
			</g>
		</g>
	</g>
	<g>
		<linearGradient id="SVGID_30_" gradientUnits="userSpaceOnUse" x1="348.6451" y1="11.0025" x2="48.8934" y2="378.3212">
			<stop  offset="0" style="stop-color:#D7B270"/>
			<stop  offset="1" style="stop-color:#CA953F"/>
		</linearGradient>
		<path class="st29" d="M273.69,160.92c-1.19-13.94-6.79-19.73-11.29-22.13c-5.8-3.1-13.16-2.5-20.75,1.68
			c-10.91,6.01-16.69,24.83-18.84,33.59c-0.34-0.15-0.68-0.29-1.01-0.42c-10.96-4.47-20.13-4.19-21.75-4.1
			c-1.73-0.1-10.88-0.37-21.84,4.1c-0.33,0.14-0.67,0.28-1.01,0.42c-2.16-8.76-7.94-27.58-18.85-33.59
			c-7.59-4.18-14.95-4.78-20.75-1.68c-4.5,2.4-10.11,8.19-11.29,22.13c-1.92,22.55,10.31,46.5,21.36,60.15
			c2.26,2.79,3.44,8.6,3.24,15.94c-0.11,4.44,0.15,8.78,0.79,12.92c4.27,27.59,9.89,29.02,12.29,29.62c0.6,0.16,1.19,0.27,1.75,0.36
			c0.45,0.19,0.87,0.26,1.49,0.29c0.14-0.01,0.29-0.03,0.43-0.05c0.42,0.03,0.83,0.05,1.22,0.05c5.93,0,9.93-3.11,11.55-5.78
			c0.56-0.92,0.71-1.93,1.04-4.13c0.02-0.1,0.03-0.2,0.05-0.3c3.38,1.31,9.61,3.13,18.2,3.15c0.05,0.01,0.14,0.02,0.2,0.02
			l0.23-0.01c8.72-0.03,14.97-1.85,18.34-3.16c0.02,0.1,0.03,0.2,0.05,0.31c0.32,2.19,0.47,3.2,1.03,4.12
			c1.73,2.84,6.12,6.21,12.78,5.73c0.14,0.02,0.31,0.05,0.55,0.05c0.46,0,0.92-0.1,1.37-0.29c0.57-0.1,1.15-0.21,1.75-0.36
			c2.4-0.6,8.02-2.03,12.3-29.68c0.64-4.13,0.9-8.43,0.78-12.81c-0.2-7.37,0.98-13.2,3.24-16
			C263.38,207.42,275.61,183.48,273.69,160.92z M245.03,146.6c5.44-3.01,10.45-3.58,14.07-1.64c4.26,2.28,6.89,8,7.62,16.56
			c1.13,13.33-3.39,29.49-12.44,44.53c-5.99-12.73-14.42-22.38-25.08-28.71C230.21,172.98,235.5,151.85,245.03,146.6z M242.1,237.26
			c0.11,3.94-0.13,7.83-0.7,11.55c-1.72,11.11-3.58,17.14-4.91,20.33c-0.15-17.42-3.01-31.3-8.49-41.32c1.65-0.1,3.32-0.51,4.88-1.2
			c6.12-2.7,9.28-9.01,7.05-14.07c-2.24-5.06-9.03-6.97-15.14-4.27c-3.4,1.5-5.99,4.16-7.13,7.26c-8.1-6.07-16.13-5.93-17.6-5.86
			c-1.59-0.07-9.6-0.21-17.69,5.86c-1.14-3.1-3.73-5.76-7.13-7.26c-6.11-2.7-12.91-0.78-15.14,4.28c-1.09,2.47-0.94,5.31,0.42,7.99
			c1.34,2.63,3.69,4.78,6.62,6.08c1.56,0.69,3.23,1.1,4.88,1.2c-5.49,10.02-8.34,23.9-8.49,41.32c-1.34-3.18-3.19-9.2-4.91-20.27
			c-0.58-3.73-0.82-7.66-0.71-11.67c0.17-6.45-0.53-15.24-4.8-20.52c-0.93-1.14-1.87-2.38-2.8-3.67
			c5.75-14.18,14.34-24.47,25.37-30.53c0.51-0.14,0.96-0.38,1.19-0.61c11-5.68,20.78-5.45,22.59-5.35c0.08,0.01,0.15,0.01,0.37,0.03
			c0.03,0,0.17,0,0.2,0c0.08,0.01,0.17,0.02,0.24-0.01c0.11,0,0.23-0.01,0.26-0.02c1.84-0.1,11.65-0.32,22.46,5.24
			c0.39,0.33,0.84,0.57,1.18,0.65c11.2,6.12,19.79,16.42,25.54,30.6c-0.94,1.29-1.88,2.53-2.8,3.67
			C242.62,221.97,241.93,230.8,242.1,237.26z M214.89,245.18c-0.42-0.86-1.17-1.5-2.08-1.79c-0.11-0.03-0.21-0.05-0.32-0.08
			c-2.58-1.72-5.53-2.87-8.81-3.43c0.72-2.28,2.71-3.58,3.73-4.12c0.92,0,2.19-0.21,3.41-1.12c1.89-1.41,2.8-3.86,2.73-7.27
			c-0.14-6.42-7.06-9.28-12.88-9.78c-0.15-0.02-0.3-0.03-0.42-0.03l-0.12,0.76c0,0,0,0,0,0l-0.1-0.77
			c-0.02,0.01-0.33,0.01-0.36,0.01c-0.12,0.01-0.23,0.02-0.28,0.03c-5.88,0.5-12.8,3.36-12.95,9.79c-0.08,3.41,0.84,5.86,2.73,7.27
			c0.97,0.73,2.17,1.12,3.4,1.12c1.03,0.54,3.02,1.84,3.73,4.12c-3.27,0.56-6.23,1.71-8.81,3.43c-0.11,0.02-0.21,0.05-0.32,0.08
			c-0.9,0.28-1.65,0.93-2.08,1.79c-8.06,7.2-9.81,19.04-10.56,24.11c-0.09,0.61-0.2,1.33-0.28,1.77c-0.42,0.51-1.56,1.64-3.76,2.03
			c-0.23-16.92,2.04-39.02,13.84-50.11c6.18-5.81,12.51-6.34,14.59-6.34c0.22,0,0.39,0,0.51,0.01c0.11,0.02,0.23,0.02,0.29,0.02
			c0.25,0.02,0.51,0.02,0.74-0.02c1.33-0.07,8.28-0.07,15.04,6.21c11.89,11.05,14.18,33.23,13.95,50.22
			c-2.19-0.39-3.33-1.51-3.76-2.03c-0.08-0.44-0.19-1.16-0.28-1.77C224.7,264.22,222.95,252.38,214.89,245.18z M206.51,228.71
			c-0.31,0.03-0.61,0.1-0.9,0.2c-0.03,0.01-3.05,1.13-5.61,3.82c-2.49-2.63-5.43-3.75-5.61-3.82c-0.29-0.11-0.59-0.18-0.9-0.2
			c-0.03-0.27-0.06-0.66-0.05-1.18c0.03-1.55,3.94-2.75,6.49-2.99c2.69,0.24,6.59,1.44,6.63,2.99
			C206.57,228.05,206.55,228.43,206.51,228.71z M195.23,247.31c1.48-0.46,3.08-0.73,4.8-0.81c1.84,0.08,3.42,0.33,4.86,0.77
			c-1.38,0.44-3,0.78-4.79,1.02C198.23,248.07,196.6,247.73,195.23,247.31z M188.32,251.81c2.53,1.69,6.18,2.83,10.79,3.42
			c0.29,0.07,0.54,0.1,0.98,0.1c0.24,0,0.5-0.03,0.71-0.08c4.69-0.59,8.34-1.75,10.88-3.44c2.26,2.66,4.06,6.42,5.36,11.22
			c-2.52,1.12-8.3,3.14-17.05,3.15c-8.76-0.02-14.56-2.05-17.09-3.17C184.19,258.15,185.97,254.47,188.32,251.81z M224.62,217.11
			c0.66-1,1.75-1.89,2.99-2.43c2.38-1.05,5.32-0.66,5.93,0.7c0.28,0.64,0.11,1.52-0.48,2.42c-0.66,1-1.75,1.89-2.99,2.43
			c-2.69,1.19-5.34,0.6-5.93-0.7C223.85,218.88,224.02,218,224.62,217.11z M166.96,217.79c-0.59-0.9-0.77-1.78-0.49-2.41
			c0.61-1.37,3.54-1.75,5.93-0.71c2.69,1.19,4.05,3.54,3.47,4.85c-0.58,1.31-3.23,1.88-5.93,0.7
			C168.7,219.68,167.62,218.79,166.96,217.79z M170.79,177.34c-10.66,6.33-19.09,15.99-25.08,28.71
			c-9.05-15.05-13.57-31.21-12.44-44.53c0.73-8.56,3.36-14.28,7.62-16.56c1.41-0.76,3.02-1.13,4.79-1.13c2.79,0,5.96,0.93,9.29,2.77
			C164.5,151.84,169.79,172.98,170.79,177.34z"/>
		<linearGradient id="SVGID_31_" gradientUnits="userSpaceOnUse" x1="325.2566" y1="-8.0839" x2="25.5046" y2="359.2352">
			<stop  offset="0" style="stop-color:#D7B270"/>
			<stop  offset="1" style="stop-color:#CA953F"/>
		</linearGradient>
		<path class="st30" d="M179.95,164.75c0.39,0.87,1.14,1.56,2.04,1.87c0.89,0.31,1.93,0.23,2.77-0.2c4.39-2.3,9.29-3.46,14.66-3.46
			c0.32,0,0.65,0,0.97,0c5.34,0,10.27,1.16,14.66,3.45c0.49,0.26,1.06,0.4,1.62,0.4c0.4,0,0.79-0.07,1.15-0.19
			c0.91-0.32,1.66-1,2.05-1.87l10.29-22.99c0.57-1.28,0.32-2.77-0.62-3.79c-0.95-1.03-2.42-1.39-3.73-0.93l-13,4.6l-9.81-20
			c-0.06-0.11-0.13-0.21-0.2-0.32l-0.2-0.27c-0.07-0.08-0.15-0.16-0.25-0.26c-0.08-0.08-0.15-0.15-0.23-0.21
			c-0.06-0.05-0.13-0.1-0.26-0.19c-0.1-0.07-0.2-0.13-0.41-0.25c-0.06-0.03-0.12-0.05-0.24-0.1c-0.09-0.04-0.19-0.08-0.31-0.11
			c-0.11-0.03-0.21-0.05-0.31-0.07c-0.11-0.02-0.23-0.04-0.34-0.05c-0.23-0.02-0.44-0.03-0.7,0c-0.1,0.01-0.2,0.03-0.31,0.05
			c-0.11,0.02-0.23,0.05-0.35,0.08c-0.11,0.03-0.22,0.08-0.33,0.12c-0.07,0.02-0.14,0.05-0.31,0.14c-0.1,0.05-0.19,0.11-0.36,0.23
			c-0.02,0.02-0.2,0.14-0.22,0.16c-0.08,0.07-0.15,0.14-0.25,0.24c-0.08,0.08-0.16,0.16-0.21,0.22c-0.06,0.07-0.11,0.15-0.19,0.26
			c-0.08,0.11-0.15,0.23-0.26,0.42l-9.75,19.89l-13-4.6c-1.32-0.47-2.79-0.1-3.73,0.92c-0.95,1.03-1.19,2.52-0.62,3.8L179.95,164.75
			z M179.38,146.34l8.25,2.92c1.66,0.59,3.52-0.16,4.3-1.75l7.98-16.28l7.98,16.28c0.78,1.59,2.64,2.35,4.31,1.75l8.24-2.92
			l-5.51,12.33c-4.65-1.86-9.73-2.79-15.06-2.7c-5.25-0.08-10.33,0.84-14.98,2.7L179.38,146.34z"/>
	</g>
</g>
</svg>
